<?xml version="1.0" standalone="no"?>
<!DOCTYPE svg PUBLIC "-//W3C//DTD SVG 20010904//EN"
 "http://www.w3.org/TR/2001/REC-SVG-20010904/DTD/svg10.dtd">
<svg version="1.0" xmlns="http://www.w3.org/2000/svg"
 width="16.000000pt" height="16.000000pt" viewBox="0 0 16.000000 16.000000"
 preserveAspectRatio="xMidYMid meet">
<metadata>
Created by potrace 1.11, written by Peter Selinger 2001-2013
</metadata>
<g transform="translate(0.000000,16.000000) scale(0.003252,-0.003252)"
fill="#000000" stroke="none">
<path d="M740 4214 c-116 -20 -154 -30 -217 -56 -155 -64 -267 -183 -325 -348
-38 -105 -31 -293 17 -435 58 -171 246 -468 407 -640 10 -11 42 -47 71 -79
139 -156 389 -395 577 -551 25 -20 47 -39 48 -40 4 -4 -24 -36 -115 -134 -121
-132 -155 -167 -356 -370 -117 -119 -196 -205 -177 -194 19 11 80 44 135 73
94 49 123 65 250 135 28 15 75 42 105 58 55 30 304 176 369 215 l35 21 50 -37
c28 -20 56 -41 62 -47 16 -15 266 -188 359 -248 329 -214 822 -478 1120 -597
143 -58 371 -137 418 -146 17 -2 34 -7 39 -10 9 -6 12 -6 113 -29 290 -64 485
-63 657 1 185 70 319 220 363 408 19 81 13 229 -14 330 -26 98 -102 258 -177
374 -47 72 -174 244 -194 262 -3 3 -34 39 -69 80 -87 101 -426 438 -531 527
-47 40 -100 85 -117 100 l-33 28 157 170 c85 94 239 253 342 354 l186 184 -84
-43 c-47 -23 -123 -63 -170 -90 -47 -26 -117 -64 -156 -85 -115 -63 -293 -164
-408 -232 -63 -38 -112 -61 -120 -57 -6 5 -54 39 -105 76 -200 148 -557 379
-737 478 -33 18 -91 50 -128 71 -299 169 -783 377 -1007 435 -8 2 -60 15 -115
30 -55 14 -136 32 -180 40 -80 15 -298 26 -345 18z m205 -428 c33 -3 92 -13
130 -21 39 -9 79 -18 91 -20 28 -6 195 -59 264 -83 193 -68 469 -193 695 -315
202 -108 239 -129 256 -143 8 -8 18 -14 22 -14 11 0 307 -189 437 -279 156
-108 148 -101 133 -107 -7 -3 -67 -46 -135 -96 -350 -258 -488 -431 -431 -541
21 -42 101 -116 184 -171 41 -27 87 -57 102 -68 87 -60 480 -247 742 -353 272
-111 655 -235 655 -214 0 5 -3 9 -7 9 -5 0 -31 22 -58 48 -28 26 -85 77 -127
113 -42 37 -91 80 -110 96 -42 38 -249 223 -265 237 -92 85 -224 225 -260 278
-66 96 -68 135 -14 241 23 45 54 97 69 116 l28 33 50 -42 c145 -124 176 -152
309 -280 444 -427 685 -811 615 -980 -44 -107 -254 -128 -540 -55 -131 33
-352 107 -435 145 -11 5 -69 30 -130 56 -338 143 -774 390 -1145 647 -136 94
-133 83 -37 149 247 172 438 352 486 458 27 60 26 98 -5 145 -100 152 -613
427 -1224 655 -176 67 -429 145 -437 136 -4 -3 -4 -7 -2 -9 2 -1 45 -39 94
-83 50 -44 105 -94 124 -110 19 -16 39 -33 45 -39 6 -5 32 -28 57 -50 24 -22
81 -71 124 -110 44 -38 145 -135 225 -215 241 -241 252 -291 108 -503 l-40
-58 -56 48 c-31 26 -59 50 -62 53 -3 3 -43 39 -90 80 -190 168 -419 409 -548
578 -251 329 -301 550 -142 620 29 13 171 32 190 26 3 -1 32 -4 65 -8z"/>
</g>
</svg>
