<?xml version="1.0" encoding="utf-8"?>
<svg version="1.1" xmlns="http://www.w3.org/2000/svg" xmlns:xlink="http://www.w3.org/1999/xlink" x="0px" y="0px"
	 viewBox="0 0 307.3 88.9" enable-background="new 0 0 307.3 88.9" xml:space="preserve">
<polygon fill="#231F20" points="197.5,55.4 191.3,55.4 191.3,24.8 187.5,24.8 187.5,19 191.3,19 191.3,10.8 197.5,10.8 197.5,19
	203.9,19 203.9,24.8 197.5,24.8 "/>
<g>
	<defs>
		<rect id="SVGID_1_" y="0" width="307.3" height="88.9"/>
	</defs>
	<clipPath id="SVGID_2_">
		<use xlink:href="#SVGID_1_"  overflow="visible"/>
	</clipPath>
	<path clip-path="url(#SVGID_2_)" fill="#231F20" d="M213.4,19v3.9c3.2-3.8,4.7-4.6,8.1-4.6c2.2,0,3.2,0.3,5.6,1.5l-3,5.6
		c-1.5-1-2.3-1.2-3.6-1.2c-5.1,0-7.2,3.6-7.2,12.2v19.1h-6.2V19H213.4z"/>
	<path clip-path="url(#SVGID_2_)" fill="#231F20" d="M232.7,33.3c0.9-5.5,5.3-9.5,10.7-9.5c5.3,0,9.5,3.7,10.7,9.5H232.7z
		 M260.6,37.3c0-11.5-6.9-19.1-17.3-19.1c-10.4,0-17.6,7.8-17.6,19.2c0,11.2,7.4,18.9,17.9,18.9c4.6,0,9-1.5,12.3-4.4
		c1.8-1.6,2.7-2.7,4.5-5.8l-5.2-3c-3.5,5.7-6.4,7.6-11.2,7.6c-6.7,0-11.2-4.8-11.5-12.3h28.3V37.3z"/>
	<path clip-path="url(#SVGID_2_)" fill="#231F20" d="M157.7,33.3c0.9-5.5,5.3-9.5,10.7-9.5c5.3,0,9.5,3.7,10.7,9.5H157.7z
		 M185.7,37.3c0-11.5-6.9-19.1-17.3-19.1s-17.6,7.8-17.6,19.2c0,11.2,7.4,18.9,17.9,18.9c4.7,0,9-1.5,12.3-4.4
		c1.8-1.6,2.7-2.7,4.5-5.8l-5.3-3c-3.5,5.7-6.4,7.6-11.2,7.6c-6.7,0-11.2-4.8-11.5-12.3h28.3V37.3z"/>
</g>
<path fill="#231F20" d="M282.8,36.6l-3.8,4.7l11,14h7.4L282.8,36.6z M277.7,30.5L268.9,19h-7.5l12.6,16.1L277.7,30.5z M295.7,19
	h-7.8l-28.8,36.4h7.7L295.7,19z"/>
<g>
	<defs>
		<rect id="SVGID_3_" y="0" width="307.3" height="88.9"/>
	</defs>
	<clipPath id="SVGID_4_">
		<use xlink:href="#SVGID_3_"  overflow="visible"/>
	</clipPath>
	<path clip-path="url(#SVGID_4_)" fill="#231F20" d="M128,51.2c-7,0-12.7-6.2-12.7-13.9S121,23.4,128,23.4s12.7,6.2,12.7,13.9
		S135,51.2,128,51.2 M139.8,20v4.2c-3.6-4.2-7.4-6-12.7-6c-10.1,0-17.3,8-17.3,18.9c0,11.1,7.4,19.2,17.5,19.2c3.6,0,6-1,8-2.1
		c2-1.1,4.9-3.6,4.9-3.6v4.7h5.9V20H139.8z"/>
	<path clip-path="url(#SVGID_4_)" fill="#231F20" d="M56.8,36.2c0.1,8.7-40,29.6-45.6,32.5c7.4-6.9,26.2-26.3,26.1-31.2
		c0-3.8-7.6-9.7-21.3-22C25.8,17.6,56.7,30.3,56.8,36.2"/>
	<path clip-path="url(#SVGID_4_)" fill="#478CC9" d="M107.9,61.4c-1.7-3.8-4.6-8-8.5-12.5C91.8,40,80.9,30.5,68.6,22.1
		c-12.3-8.3-25.1-15-36.2-18.8c-5.7-1.9-10.6-3-14.8-3.3C8.8-0.4,4.5,3.2,2.3,6.3c-2.1,3.1-3.9,8.5-0.2,16.5c1.7,3.8,4.6,8,8.5,12.5
		c7.6,8.9,18.6,18.4,30.8,26.8c12.3,8.3,25.1,15,36.2,18.8c5.7,1.9,10.7,3,14.8,3.3c8.8,0.5,13.1-3.2,15.3-6.3
		C109.8,74.8,111.6,69.4,107.9,61.4 M47.1,53.8C22.7,37.1,6.8,17.8,10.7,12c3.9-5.7,27.7,1.9,52.2,18.5c24.5,16.6,40.3,36,36.4,41.7
		C95.4,78,71.6,70.4,47.1,53.8"/>
	<path clip-path="url(#SVGID_4_)" fill="#231F20" d="M53.3,48c-0.1-8.7,39.9-29.6,45.6-32.5c-7.4,6.8-26.2,26.3-26.1,31.2
		c0,3.8,7.5,9.7,21.3,22C84.3,66.6,53.3,54,53.3,48"/>
	<path clip-path="url(#SVGID_4_)" fill="#231F20" d="M302.5,50.4c0.7,0,1.8,0.1,1.8-0.9c0-0.8-0.7-0.9-1.3-0.9h-1.5v1.8H302.5z
		 M305,53.3h-0.8l-1.5-2.4h-1.2v2.4h-0.6v-5.2h2.3c1.4,0,1.8,0.5,1.8,1.4c0,1-0.7,1.4-1.6,1.4L305,53.3z M306.5,50.7
		c0-2.3-1.6-4-3.9-4c-2.3,0-3.9,1.8-3.9,4c0,2.3,1.7,4.1,3.9,4.1C304.9,54.8,306.5,53,306.5,50.7 M298,50.7c0-2.6,2.1-4.6,4.7-4.6
		c2.6,0,4.6,2.1,4.6,4.6c0,2.6-2.1,4.7-4.6,4.7C300,55.4,298,53.3,298,50.7"/>
	<path clip-path="url(#SVGID_4_)" fill="#ADAFB1" d="M284.7,88.3h1.9l8.3-19.4h-1.9l-4.9,11.5l-4.6-11.5h-1.9l5.6,13.9L284.7,88.3z
		 M262.8,76.1c0-3.2,2.4-5.9,5.7-5.9c3.2,0,5.7,2.8,5.7,5.9c0,2.4-1.9,5.9-5.7,5.9C265.2,81.9,262.8,79.2,262.8,76.1 M275.9,68.9
		h-1.8v2.6H274c-1.7-2.6-4.2-2.9-5.6-2.9c-3.8,0-7.5,3.1-7.5,7.6c0,4.5,3.7,7.5,7.5,7.5c2.1,0,4.5-0.9,5.6-3h0.1v1.3
		c0,4-2.8,5.4-5.2,5.4c-3.5,0-4.9-2.4-5.4-3.6h-1.9c1.3,4.5,5.3,5.3,7.4,5.3c0.6,0,3.9-0.1,5.7-2.7c1.3-1.8,1.3-3.7,1.3-5.3V68.9z
		 M242.1,76.1c0-3.8,3.1-6,5.7-6c2.5,0,5.7,2,5.7,5.8c0,3.8-2.9,6-5.7,6C244.9,81.9,242.1,79.5,242.1,76.1 M240.3,76.2
		c0,3.9,3.3,7.4,7.5,7.4c4.3,0,7.5-3.6,7.5-7.5c0-3.9-3.3-7.5-7.5-7.5C244,68.5,240.3,71.6,240.3,76.2 M232.1,83.3h1.8V63.8h-1.8
		V83.3z M212.5,76.1c0-3.8,3.1-6,5.7-6c2.5,0,5.7,2,5.7,5.8c0,3.8-2.9,6-5.7,6C215.3,81.9,212.5,79.5,212.5,76.1 M210.7,76.2
		c0,3.9,3.3,7.4,7.5,7.4c4.3,0,7.5-3.6,7.5-7.5c0-3.9-3.3-7.5-7.5-7.5C214.4,68.5,210.7,71.6,210.7,76.2 M191.7,83.3h1.8v-7.9
		c0-1.9,0.6-3.2,1.3-3.9c1-1,2.3-1.2,3.1-1.2c0.8,0,2.1,0.3,3.1,1.2c0.8,0.8,1.4,2.1,1.4,3.9v7.9h1.8v-7.9c0-2.4-0.7-4-1.8-5.1
		c-1.3-1.3-2.8-1.8-4.6-1.8c-2.4,0-3.9,1.3-4.4,2.2h-0.1v-1.8h-1.8V83.3z M172,83.3h1.8v-7.9c0-1.9,0.6-3.2,1.3-3.9
		c1-1,2.3-1.2,3.1-1.2c0.8,0,2.1,0.3,3.1,1.2c0.8,0.8,1.4,2.1,1.4,3.9v7.9h1.8v-7.9c0-2.4-0.7-4-1.8-5.1c-1.3-1.3-2.8-1.8-4.6-1.8
		c-2.4,0-3.9,1.3-4.4,2.2h-0.1v-6.9H172V83.3z M163.8,79c-0.6,1.1-2.1,2.9-5.1,2.9c-3.4,0-5.9-2.7-5.9-5.9c0-3.8,3.1-5.9,5.9-5.9
		c1.8,0,3.9,0.9,5.1,3.1h2c-1.4-3.4-4.6-4.7-7.2-4.7c-4.3,0-7.7,3.4-7.7,7.6c0,4,3.2,7.5,7.7,7.5c4.3,0,6.2-2.8,7.2-4.6H163.8z
		 M132.1,75.1c0.5-3.4,3.3-4.9,5.6-4.9c2.3,0,5.1,1.5,5.6,4.9H132.1z M145.2,76.7c0.1-1.4-0.1-3-1.1-4.6c-1-1.8-3.3-3.7-6.4-3.7
		c-4.2,0.1-7.5,3.5-7.5,7.6c0,4.3,3.5,7.5,7.5,7.5c3.3,0,6.1-2.2,7.1-5h-1.9c-0.7,1.8-2.5,3.3-5.2,3.4c-2.8,0-5.4-2.4-5.6-5.2H145.2
		z M120.1,83.3h1.8V70.5h3.4v-1.7h-3.4v-5.1h-1.8v5.1h-3v1.7h3V83.3z"/>
</g>
</svg>
